<svg xmlns="http://www.w3.org/2000/svg" viewBox="0 0 48 48" aria-hidden="true">
  <!-- Monochrome version: use currentColor so the icon inherits text color -->
  <!-- Keep the vertical flip transform to preserve the previous visual orientation -->
  <g transform="translate(0 48) scale(1 -1)">
    <path fill="currentColor" d="M24 9.5c3.9 0 7.1 1.4 9.3 3.7l6.8-6.8C36.4 3.5 30.6 1 24 1 14.7 1 6.8 5.9 2.5 13.4l7.9 6.1C12.5 12 17.7 9.5 24 9.5z"/>
    <path fill="currentColor" d="M46.5 20.5c0 1.6-.1 3.1-.4 4.5H24v-8.5h12.7c-.5-2.8-2.1-5.1-4.4-6.6l7-5.4C45.6 9 46.5 14.5 46.5 20.5z"/>
    <path fill="currentColor" d="M10.4 28.6A14.9 14.9 0 0 1 9 24c0-1.7.3-3.3.8-4.8L2.5 13.4C1 16.7 0 20.2 0 24c0 3.8 1 7.4 2.8 10.6l7.6-6z"/>
    <path fill="currentColor" d="M24 46c6 0 11-2 14.6-5.4l-7.6-6C29.3 36 26.8 37 24 37c-6.4 0-11.6-3.3-14-8.1l-7.9 6C6.8 42.1 14.7 46 24 46z"/>
  </g>
</svg>
